mtllib 4tharrow.mtl
o 4th.002
v 5.000000 24.000000 7.465000
v 0.000000 24.000000 7.465000
v 0.000000 -23.000000 7.465001
v 5.000000 -7.000000 7.465000
v 24.000000 1.000001 7.465000
v 19.000000 6.000000 7.465000
v -24.000000 1.000001 7.465000
v 29.242641 1.000000 -0.000000
v 19.000000 11.242641 -0.000001
v 9.000000 28.000000 -0.000002
v -5.000000 24.000000 7.465000
v -5.000000 -7.000000 7.465000
v -19.000000 6.000000 7.465000
v 0.000000 -31.071068 0.000002
v 32.071068 1.000000 -0.000000
v 0.000000 -28.242641 0.000002
v 19.000000 14.071068 -0.000001
v 11.000000 6.071067 -0.000000
v 9.000000 1.242640 -0.000000
v 11.000000 30.000000 -0.000002
v -11.000000 30.000000 -0.000002
v -9.000000 28.000000 -0.000002
v -11.000000 6.071067 -0.000000
v -9.000000 1.242640 -0.000000
v -19.000000 14.071068 -0.000001
v -19.000000 11.242641 -0.000001
v -32.071068 1.000000 -0.000000
v -29.242641 1.000000 -0.000000
v 5.000000 24.000000 -7.465004
v 0.000000 24.000000 -7.465004
v 0.000000 -23.000000 -7.464997
v 5.000000 -7.000000 -7.464999
v 24.000000 0.999999 -7.465000
v 19.000000 6.000000 -7.465001
v -24.000000 0.999999 -7.465000
v -5.000000 24.000000 -7.465004
v -5.000000 -7.000000 -7.464999
v -19.000000 6.000000 -7.465001
v 29.242641 1.000000 -0.000000
v 19.000000 11.242641 -0.000001
v 9.000000 28.000000 -0.000002
v 0.000000 -31.071068 0.000002
v 32.071068 1.000000 -0.000000
v 0.000000 -28.242641 0.000002
v 19.000000 14.071068 -0.000001
v 11.000000 6.071067 -0.000000
v 9.000000 1.242640 -0.000000
v 11.000000 30.000000 -0.000002
v -11.000000 30.000000 -0.000002
v -9.000000 28.000000 -0.000002
v -11.000000 6.071067 -0.000000
v -9.000000 1.242640 -0.000000
v -19.000000 14.071068 -0.000001
v -19.000000 11.242641 -0.000001
v -32.071068 1.000000 -0.000000
v -29.242641 1.000000 -0.000000
vn -0.6333 0.6333 0.4448
vn -0.0000 -0.0000 1.0000
vn -0.6333 -0.6333 0.4448
vn 0.6333 -0.6333 0.4448
vn 0.6333 0.6333 0.4448
vn -0.6218 0.6696 0.4062
vn 0.8814 -0.0000 0.4723
vn -0.0000 0.8814 0.4723
vn 0.6050 0.6516 0.4576
vn 0.6561 0.6561 0.3729
vn -0.8814 -0.0000 0.4723
vn -0.6333 0.6333 -0.4448
vn -0.0000 -0.0000 -1.0000
vn -0.6333 -0.6333 -0.4448
vn 0.6333 -0.6333 -0.4448
vn 0.6333 0.6333 -0.4448
vn -0.6218 0.6696 -0.4062
vn 0.8814 -0.0000 -0.4723
vn -0.0000 0.8814 -0.4723
vn 0.6050 0.6516 -0.4576
vn 0.6561 0.6561 -0.3729
vn -0.8814 -0.0000 -0.4723
vt 0.125000 0.519937
vt 0.250000 0.519937
vt 0.250000 0.608838
vt 0.125000 0.702052
vt 0.542731 0.643631
vt 0.542731 0.091204
vt 0.546875 0.356369
vt 0.546875 0.643631
vt 0.536171 0.698874
vt 0.534100 0.632583
vt 0.551018 0.091204
vt 0.125000 0.000000
vt 0.250000 0.093215
vt 0.125000 0.524251
vt 0.250000 0.377696
vt 0.125000 1.000000
vt 0.250000 0.928880
vt 0.551018 0.643631
vt 0.062500 0.019491
vt 0.062500 0.063685
vt 0.005385 0.520601
vt -0.000139 0.520601
vt 0.119614 0.520601
vt 0.099609 0.724836
vt 0.099609 0.680642
vt 0.083984 0.599836
vt 0.080078 0.524392
vt 0.083984 0.973726
vt 0.080078 0.942476
vt 0.041015 0.599837
vt 0.044921 0.524392
vt 0.044921 0.942476
vt 0.041015 0.973726
vt 0.025391 0.724837
vt 0.025391 0.680642
vt 0.557578 0.698874
vt 0.559649 0.632583
s 0
usemtl 19_-_Default
f 28/1/1 7/2/1 13/3/1 26/4/1
f 7/5/2 3/6/2 12/7/2 13/8/2
f 4/7/2 1/9/2 2/10/2 3/11/2
f 16/12/3 3/13/3 7/2/3 28/1/3
f 8/1/4 5/2/4 3/13/4 16/12/4
f 9/4/5 6/3/5 5/2/5 8/1/5
f 19/14/6 4/15/6 6/3/1 9/4/1
f 10/16/7 1/17/7 4/15/7 19/14/7
f 22/16/8 11/17/8 1/17/8 10/16/8
f 26/4/9 13/3/9 12/15/10 24/14/10
f 6/8/2 4/7/2 3/11/2 5/18/2
f 14/19/2 16/20/2 28/21/2 27/22/2
f 15/1/2 8/23/2 16/20/2 14/19/2
f 17/24/2 9/25/2 8/23/2 15/1/2
f 18/26/2 19/27/2 9/25/2 17/24/2
f 20/28/2 10/29/2 19/27/2 18/26/2
f 24/14/11 12/15/11 11/17/11 22/16/11
f 23/30/2 24/31/2 22/32/2 21/33/2
f 25/34/2 26/35/2 24/31/2 23/30/2
f 27/22/2 28/21/2 26/35/2 25/34/2
f 21/33/2 22/32/2 10/29/2 20/28/2
f 11/36/2 12/7/2 3/6/2 2/37/2
f 28/1/12 26/4/12 38/3/12 35/2/12
f 35/5/13 38/8/13 37/7/13 31/6/13
f 32/7/13 31/11/13 30/10/13 29/9/13
f 16/12/14 28/1/14 35/2/14 31/13/14
f 8/1/15 16/12/15 31/13/15 33/2/15
f 9/4/16 8/1/16 33/2/16 34/3/16
f 19/14/17 9/4/12 34/3/12 32/15/17
f 10/16/18 19/14/18 32/15/18 29/17/18
f 22/16/19 10/16/19 29/17/19 36/17/19
f 26/4/20 24/14/21 37/15/21 38/3/20
f 34/8/13 33/18/13 31/11/13 32/7/13
f 24/14/22 22/16/22 36/17/22 37/15/22
f 36/36/13 30/37/13 31/6/13 37/7/13
f 42/19/13 55/22/13 56/21/13 44/20/13
f 43/1/13 42/19/13 44/20/13 39/23/13
f 45/24/13 43/1/13 39/23/13 40/25/13
f 46/26/13 45/24/13 40/25/13 47/27/13
f 48/28/13 46/26/13 47/27/13 41/29/13
f 51/30/13 49/33/13 50/32/13 52/31/13
f 53/34/13 51/30/13 52/31/13 54/35/13
f 55/22/13 53/34/13 54/35/13 56/21/13
f 49/33/13 48/28/13 41/29/13 50/32/13
